<svg xmlns="http://www.w3.org/2000/svg" version="1.1" xmlns:xlink="http://www.w3.org/1999/xlink" xmlns:svgjs="http://svgjs.dev/svgjs" width="2000" height="1247" viewBox="0 0 2000 1247"><g transform="matrix(1,0,0,1,-1.2121212121212466,0.504858299595071)"><svg viewBox="0 0 396 247" data-background-color="#3498db" preserveAspectRatio="xMidYMid meet" height="1247" width="2000" xmlns="http://www.w3.org/2000/svg" xmlns:xlink="http://www.w3.org/1999/xlink"><g id="tight-bounds" transform="matrix(1,0,0,1,0.2400000000000091,-0.09999999999999432)"><svg viewBox="0 0 395.52 247.2" height="247.2" width="395.52"><g><svg></svg></g><g><svg viewBox="0 0 395.52 247.2" height="247.2" width="395.52"><mask id="8931c684-45b4-49cd-8a81-0f89d242d4bc"><rect width="640" height="400" fill="white"></rect><g transform="matrix(1,0,0,1,39.55199999999999,45.19163819095476)"><svg viewBox="0 0 316.416 156.81672361809046" height="156.81672361809046" width="316.416"><g><svg viewBox="0 0 316.416 156.81672361809046" height="156.81672361809046" width="316.416"><g><svg viewBox="0 0 316.416 156.81672361809046" height="156.81672361809046" width="316.416"><g><svg viewBox="0 0 316.416 156.81672361809046" height="156.81672361809046" width="316.416"><g id="SvgjsG1533"><svg viewBox="0 0 316.416 156.81672361809046" height="156.81672361809046" width="316.416" id="SvgjsSvg1532"><g><svg viewBox="0 0 316.416 156.81672361809046" height="156.81672361809046" width="316.416"><g transform="matrix(1,0,0,1,0,0)"><svg width="316.416" viewBox="-4.35 -36.3 80.6 40.449999999999996" height="156.81672361809046" data-palette-color="#e74c3c"><path d="M5.35-32.1L5.35-32.1Q6.95-32.1 8.45-32.18 9.95-32.25 11.4-32.3L11.4-32.3Q11.5-32.1 11.48-31.53 11.45-30.95 11.3-30.9L11.3-30.9Q11.1-30.9 10.38-30.78 9.65-30.65 9-30.33 8.35-30 8.35-29.3L8.35-29.3Q8.35-28.5 9.25-26L9.25-26Q9.65-24.9 10.33-23.08 11-21.25 11.8-19.05 12.6-16.85 13.43-14.65 14.25-12.45 14.93-10.6 15.6-8.75 16.03-7.58 16.45-6.4 16.5-6.3L16.5-6.3Q16.6-6.5 17.15-7.83 17.7-9.15 18.53-11.2 19.35-13.25 20.35-15.73 21.35-18.2 22.38-20.75 23.4-23.3 24.3-25.55L24.3-25.55Q24.65-26.4 24.9-27.35 25.15-28.3 25.15-28.95L25.15-28.95Q25.15-29.75 24.48-30.15 23.8-30.55 23.03-30.7 22.25-30.85 21.95-30.85L21.95-30.85Q21.75-30.95 21.75-31.53 21.75-32.1 21.95-32.3L21.95-32.3Q23.3-32.25 24.5-32.18 25.7-32.1 27.05-32.1L27.05-32.1Q28.2-32.1 28.88-32.13 29.55-32.15 30.2-32.2 30.85-32.25 31.8-32.3L31.8-32.3Q31.9-32.1 31.85-31.5 31.8-30.9 31.7-30.9L31.7-30.9Q31.4-30.9 30.33-30.65 29.25-30.4 28.6-29.65L28.6-29.65Q28.15-29.15 27.43-27.63 26.7-26.1 26.15-24.7L26.15-24.7Q24.8-21.35 23.68-18.55 22.55-15.75 21.48-13.15 20.4-10.55 19.25-7.75 18.1-4.95 16.65-1.55L16.65-1.55Q16.25-0.6 15.78-0.25 15.3 0.1 14.8 0.1L14.8 0.1Q14.65 0.1 14.55-0.23 14.45-0.55 14.35-0.7L14.35-0.7Q12.7-5.05 11.28-8.83 9.85-12.6 8.38-16.5 6.9-20.4 5.05-25.1L5.05-25.1Q4.5-26.55 3.98-27.7 3.45-28.85 2.8-29.8L2.8-29.8Q2.55-30.2 1.9-30.45 1.25-30.7 0.63-30.8 0-30.9-0.3-30.9L-0.3-30.9Q-0.35-30.9-0.35-31.58-0.35-32.25-0.3-32.3L-0.3-32.3Q1.4-32.25 2.53-32.18 3.65-32.1 5.35-32.1ZM39.15-32.1L39.15-32.1Q40.6-32.1 41.97-32.18 43.35-32.25 44.85-32.3L44.85-32.3Q45.05-32.1 45.02-31.6 45-31.1 44.85-30.9L44.85-30.9Q44.55-30.9 43.75-30.83 42.95-30.75 42.25-30.6 41.55-30.45 41.45-30.15L41.45-30.15Q41.3-29.65 41.27-28.85 41.25-28.05 41.25-27.1L41.25-27.1Q41.25-26.95 41.25-26.8 41.25-26.65 41.25-26.5L41.25-26.5 41.25-5.65Q41.25-5.5 41.25-5.35 41.25-5.2 41.25-5.05L41.25-5.05Q41.25-4.1 41.27-3.33 41.3-2.55 41.45-2.05L41.45-2.05Q41.55-1.8 42.25-1.6 42.95-1.4 43.75-1.33 44.55-1.25 44.85-1.25L44.85-1.25Q45-1.05 45.02-0.55 45.05-0.05 44.85 0.15L44.85 0.15Q43.35 0.05 41.97-0.03 40.6-0.1 39.15-0.1L39.15-0.1Q37.75-0.1 36.3-0.03 34.85 0.05 33.35 0.15L33.35 0.15Q33.15-0.05 33.17-0.55 33.2-1.05 33.35-1.25L33.35-1.25Q33.65-1.25 34.45-1.33 35.25-1.4 35.97-1.6 36.7-1.8 36.75-2.05L36.75-2.05Q36.95-2.65 36.97-3.6 37-4.55 37-5.65L37-5.65 37-26.5Q37-27.6 36.97-28.58 36.95-29.55 36.75-30.15L36.75-30.15Q36.7-30.45 35.97-30.6 35.25-30.75 34.45-30.83 33.65-30.9 33.35-30.9L33.35-30.9Q33.2-31.1 33.17-31.6 33.15-32.1 33.35-32.3L33.35-32.3Q34.85-32.25 36.3-32.18 37.75-32.1 39.15-32.1ZM72.25-23.4L72.25-23.4Q72.25-20.45 70.9-18.23 69.55-16 67.12-14.78 64.7-13.55 61.5-13.55L61.5-13.55Q61.1-13.55 60.45-13.65 59.8-13.75 59.4-13.95L59.4-13.95Q59.3-14.05 59-14.33 58.7-14.6 58.7-15.05L58.7-15.05Q58.7-15.35 58.95-15.3L58.95-15.3Q59.35-15.2 59.8-15.08 60.25-14.95 60.8-14.95L60.8-14.95Q63.75-14.95 65.75-16.93 67.75-18.9 67.75-22.55L67.75-22.55Q67.75-26.2 65.75-28.4 63.75-30.6 59.7-30.6L59.7-30.6Q59.25-30.6 58.32-30.55 57.4-30.5 57.25-30.15L57.25-30.15Q57.05-29.7 57.02-28.63 57-27.55 57-26.45L57-26.45 57-5.65Q57-4.55 57.02-3.6 57.05-2.65 57.25-2.05L57.25-2.05Q57.35-1.8 58.05-1.6 58.75-1.4 59.52-1.33 60.3-1.25 60.6-1.25L60.6-1.25Q60.75-1.05 60.77-0.55 60.8-0.05 60.6 0.15L60.6 0.15Q59.1 0.05 57.72-0.03 56.35-0.1 54.9-0.1L54.9-0.1Q53.5-0.1 52.07-0.03 50.65 0.05 49.15 0.15L49.15 0.15Q48.95-0.05 48.97-0.55 49-1.05 49.15-1.25L49.15-1.25Q49.45-1.25 50.22-1.33 51-1.4 51.72-1.6 52.45-1.8 52.5-2.05L52.5-2.05Q52.7-2.65 52.72-3.6 52.75-4.55 52.75-5.65L52.75-5.65 52.75-26.5Q52.75-27.6 52.72-28.58 52.7-29.55 52.5-30.15L52.5-30.15Q52.45-30.45 51.72-30.6 51-30.75 50.22-30.83 49.45-30.9 49.15-30.9L49.15-30.9Q49-31.1 48.97-31.6 48.95-32.1 49.15-32.3L49.15-32.3Q50.65-32.25 52.07-32.18 53.5-32.1 54.9-32.1L54.9-32.1Q56.35-32.1 58.02-32.15 59.7-32.2 61.85-32.2L61.85-32.2Q64.45-32.2 66.82-31.18 69.2-30.15 70.72-28.2 72.25-26.25 72.25-23.4Z" opacity="1" transform="matrix(1,0,0,1,0,0)" fill="black" class="wordmark-text-0" id="SvgjsPath1531" stroke-width="7" stroke="black" stroke-linejoin="round"></path></svg></g></svg></g></svg></g></svg></g></svg></g></svg></g></svg></g></mask><g transform="matrix(1,0,0,1,39.55199999999999,45.19163819095476)"><svg viewBox="0 0 316.416 156.81672361809046" height="156.81672361809046" width="316.416"><g><svg viewBox="0 0 316.416 156.81672361809046" height="156.81672361809046" width="316.416"><g><svg viewBox="0 0 316.416 156.81672361809046" height="156.81672361809046" width="316.416"><g><svg viewBox="0 0 316.416 156.81672361809046" height="156.81672361809046" width="316.416"><g id="textblocktransform"><svg viewBox="0 0 316.416 156.81672361809046" height="156.81672361809046" width="316.416" id="textblock"><g><svg viewBox="0 0 316.416 156.81672361809046" height="156.81672361809046" width="316.416"><g transform="matrix(1,0,0,1,0,0)"><svg width="316.416" viewBox="-4.35 -36.3 80.6 40.449999999999996" height="156.81672361809046" data-palette-color="#e74c3c"><path d="M5.35-32.1L5.35-32.1Q6.95-32.1 8.45-32.18 9.95-32.25 11.4-32.3L11.4-32.3Q11.5-32.1 11.48-31.53 11.45-30.95 11.3-30.9L11.3-30.9Q11.1-30.9 10.38-30.78 9.65-30.65 9-30.33 8.35-30 8.35-29.3L8.35-29.3Q8.35-28.5 9.25-26L9.25-26Q9.65-24.9 10.33-23.08 11-21.25 11.8-19.05 12.6-16.85 13.43-14.65 14.25-12.45 14.93-10.6 15.6-8.75 16.03-7.58 16.45-6.4 16.5-6.3L16.5-6.3Q16.6-6.5 17.15-7.83 17.7-9.15 18.53-11.2 19.35-13.25 20.35-15.73 21.35-18.2 22.38-20.75 23.4-23.3 24.3-25.55L24.3-25.55Q24.65-26.4 24.9-27.35 25.15-28.3 25.15-28.95L25.15-28.95Q25.15-29.75 24.48-30.15 23.8-30.55 23.03-30.7 22.25-30.85 21.95-30.85L21.95-30.85Q21.75-30.95 21.75-31.53 21.75-32.1 21.95-32.3L21.95-32.3Q23.3-32.25 24.5-32.18 25.7-32.1 27.05-32.1L27.05-32.1Q28.2-32.1 28.88-32.13 29.55-32.15 30.2-32.2 30.85-32.25 31.8-32.3L31.8-32.3Q31.9-32.1 31.85-31.5 31.8-30.9 31.7-30.9L31.7-30.9Q31.4-30.9 30.33-30.65 29.25-30.4 28.6-29.65L28.6-29.65Q28.15-29.15 27.43-27.63 26.7-26.1 26.15-24.7L26.15-24.7Q24.8-21.35 23.68-18.55 22.55-15.75 21.48-13.15 20.4-10.55 19.25-7.75 18.1-4.95 16.65-1.55L16.65-1.55Q16.25-0.6 15.78-0.25 15.3 0.1 14.8 0.1L14.8 0.1Q14.65 0.1 14.55-0.23 14.45-0.55 14.35-0.7L14.35-0.7Q12.7-5.05 11.28-8.83 9.85-12.6 8.38-16.5 6.9-20.4 5.05-25.1L5.05-25.1Q4.5-26.55 3.98-27.7 3.45-28.85 2.8-29.8L2.8-29.8Q2.55-30.2 1.9-30.45 1.25-30.7 0.63-30.8 0-30.9-0.3-30.9L-0.3-30.9Q-0.35-30.9-0.35-31.58-0.35-32.25-0.3-32.3L-0.3-32.3Q1.4-32.25 2.53-32.18 3.65-32.1 5.35-32.1ZM39.15-32.1L39.15-32.1Q40.6-32.1 41.97-32.18 43.35-32.25 44.85-32.3L44.85-32.3Q45.05-32.1 45.02-31.6 45-31.1 44.85-30.9L44.85-30.9Q44.55-30.9 43.75-30.83 42.95-30.75 42.25-30.6 41.55-30.45 41.45-30.15L41.45-30.15Q41.3-29.65 41.27-28.85 41.25-28.05 41.25-27.1L41.25-27.1Q41.25-26.95 41.25-26.8 41.25-26.65 41.25-26.5L41.25-26.5 41.25-5.65Q41.25-5.5 41.25-5.35 41.25-5.2 41.25-5.05L41.25-5.05Q41.25-4.1 41.27-3.33 41.3-2.55 41.45-2.05L41.45-2.05Q41.55-1.8 42.25-1.6 42.95-1.4 43.75-1.33 44.55-1.25 44.85-1.25L44.85-1.25Q45-1.05 45.02-0.55 45.05-0.05 44.85 0.15L44.85 0.15Q43.35 0.05 41.97-0.03 40.6-0.1 39.15-0.1L39.15-0.1Q37.75-0.1 36.3-0.03 34.85 0.05 33.35 0.15L33.35 0.15Q33.15-0.05 33.17-0.55 33.2-1.05 33.35-1.25L33.35-1.25Q33.65-1.25 34.45-1.33 35.25-1.4 35.97-1.6 36.7-1.8 36.75-2.05L36.75-2.05Q36.95-2.65 36.97-3.6 37-4.55 37-5.65L37-5.65 37-26.5Q37-27.6 36.97-28.58 36.95-29.55 36.75-30.15L36.75-30.15Q36.7-30.45 35.97-30.6 35.25-30.75 34.45-30.83 33.65-30.9 33.35-30.9L33.35-30.9Q33.2-31.1 33.17-31.6 33.15-32.1 33.35-32.3L33.35-32.3Q34.85-32.25 36.3-32.18 37.75-32.1 39.15-32.1ZM72.25-23.4L72.25-23.4Q72.25-20.45 70.9-18.23 69.55-16 67.12-14.78 64.7-13.55 61.5-13.55L61.5-13.55Q61.1-13.55 60.45-13.65 59.8-13.75 59.4-13.95L59.4-13.95Q59.3-14.05 59-14.33 58.7-14.6 58.7-15.05L58.7-15.05Q58.7-15.35 58.95-15.3L58.95-15.3Q59.35-15.2 59.8-15.08 60.25-14.95 60.8-14.95L60.8-14.95Q63.75-14.95 65.75-16.93 67.75-18.9 67.75-22.55L67.75-22.55Q67.75-26.2 65.75-28.4 63.75-30.6 59.7-30.6L59.7-30.6Q59.25-30.6 58.32-30.55 57.4-30.5 57.25-30.15L57.25-30.15Q57.05-29.7 57.02-28.63 57-27.55 57-26.45L57-26.45 57-5.65Q57-4.55 57.02-3.6 57.05-2.65 57.25-2.05L57.25-2.05Q57.35-1.8 58.05-1.6 58.75-1.4 59.52-1.33 60.3-1.25 60.6-1.25L60.6-1.25Q60.75-1.05 60.77-0.55 60.8-0.05 60.6 0.15L60.6 0.15Q59.1 0.05 57.72-0.03 56.35-0.1 54.9-0.1L54.9-0.1Q53.5-0.1 52.07-0.03 50.65 0.05 49.15 0.15L49.15 0.15Q48.95-0.05 48.97-0.55 49-1.05 49.15-1.25L49.15-1.25Q49.45-1.25 50.22-1.33 51-1.4 51.72-1.6 52.45-1.8 52.5-2.05L52.5-2.05Q52.7-2.65 52.72-3.6 52.75-4.55 52.75-5.65L52.75-5.65 52.75-26.5Q52.75-27.6 52.72-28.58 52.7-29.55 52.5-30.15L52.5-30.15Q52.45-30.45 51.72-30.6 51-30.75 50.22-30.83 49.45-30.9 49.15-30.9L49.15-30.9Q49-31.1 48.97-31.6 48.95-32.1 49.15-32.3L49.15-32.3Q50.65-32.25 52.07-32.18 53.5-32.1 54.9-32.1L54.9-32.1Q56.35-32.1 58.02-32.15 59.7-32.2 61.85-32.2L61.85-32.2Q64.45-32.2 66.82-31.18 69.2-30.15 70.72-28.2 72.25-26.25 72.25-23.4Z" opacity="1" transform="matrix(1,0,0,1,0,0)" fill="#e74c3c" class="wordmark-text-0" data-fill-palette-color="primary" id="text-0"></path></svg></g></svg></g></svg></g></svg></g></svg></g></svg></g></svg></g><g mask="url(#8931c684-45b4-49cd-8a81-0f89d242d4bc)"><g transform="matrix(3.4055555555555554, 0, 0, 3.4055555555555554, 105.80999999999999, 1)"><svg xmlns="http://www.w3.org/2000/svg" xmlns:xlink="http://www.w3.org/1999/xlink" version="1.1" x="0" y="0" viewBox="23 14 54 72" enable-background="new 0 0 100 100" xml:space="preserve" height="72" width="54" class="icon-none" data-fill-palette-color="accent" id="none"><g fill="#e74c3c" data-fill-palette-color="accent"><circle cx="50" cy="32" r="18" fill="#e74c3c" data-fill-palette-color="accent"></circle><path d="M68 59H32c-4.97 0-9 4.029-9 9v18h9 36 9V68C77 63.029 72.971 59 68 59z" fill="#e74c3c" data-fill-palette-color="accent"></path></g></svg></g></g></svg></g><defs></defs></svg><rect width="395.52" height="247.2" fill="none" stroke="none" visibility="hidden"></rect></g></svg></g></svg>